:FULLY-SPECIFIED
:FORCE-ALL-JOINTS-BE-3DOF
:DEGREES
815
root 2.06009 16.5848 22.9585 4.45035 0.175376 353.043
lfemur -36.4644 -1.20651 1.96778
ltibia 21.8959 0 0
lfoot -9.26341 11.9594 0
ltoes 17.7645 0 0
rfemur 3.28825 4.76475 21.8886
rtibia 21.9259 0 0
rfoot -21.6086 -12.5826 0
rtoes -25.0565 0 0
lowerback 0.23215 6.54031 5.53298
upperback -0.304151 8.73336 -0.249533
thorax 0.421378 4.37229 -3.22128
lowerneck -5.57369 -1.78841 2.99844
upperneck 0.0104383 -2.59432 1.53333
head 0.915813 -1.26511 -0.0883382
lclavicle -1.422e-14 4.55051e-16 0
lhumerus -53.6479 -6.46171 90.79
lradius 54.0319 0 0
lwrist 19.3723 0 0
lhand -7.97195 5.24119 0
lfingers 7.12502 0 0
lthumb 17.9351 34.4236 0
rclavicle -1.422e-14 4.55051e-16 0
rhumerus -30.4005 45.1626 -109.532
rradius 67.8167 0 0
rwrist -1.58998 0 0
rhand -9.28042 -23.4507 0
rfingers 7.12502 0 0
rthumb 16.6726 -772.688 0
816
root 2.08833 16.5814 23.103 4.50486 -1.35383 352.835
lfemur -36.2456 -1.07995 2.57288
ltibia 20.1991 0 0
lfoot -8.73102 12.9646 0
ltoes 18.1922 0 0
rfemur 4.14488 5.34151 21.9964
rtibia 20.9154 0 0
rfoot -21.5313 -12.4861 0
rtoes -25.3596 0 0
lowerback 0.161097 6.64655 5.67613
upperback -0.307639 8.87332 -0.164852
thorax 0.4771 4.44315 -3.20212
lowerneck -5.55022 -1.67417 3.10864
upperneck 0.0860254 -2.45024 1.46768
head 0.932257 -1.19337 -0.123484
lclavicle -9.52767e-15 3.02223e-16 0
lhumerus -53.56 -6.35828 90.6919
lradius 53.3667 0 0
lwrist 19.064 0 0
lhand -7.6998 5.32641 0
lfingers 7.12502 0 0
lthumb 18.1972 34.4877 0
rclavicle -9.52767e-15 3.02223e-16 0
rhumerus -30.1225 45.1628 -109.176
rradius 67.5404 0 0
rwrist -1.88796 0 0
rhand -8.57239 -23.1741 0
rfingers 7.12502 0 0
rthumb 17.3552 -772.372 0
817
root 2.11161 16.5787 23.2222 4.54982 -2.615 352.664
lfemur -36.0652 -0.975576 3.07192
ltibia 18.7997 0 0
lfoot -8.29194 13.7935 0
ltoes 18.5448 0 0
rfemur 4.85135 5.81717 22.0853
rtibia 20.0819 0 0
rfoot -21.4676 -12.4064 0
rtoes -25.6095 0 0
lowerback 0.102497 6.73418 5.79419
upperback -0.310516 8.98875 -0.0950136
thorax 0.523054 4.50158 -3.18632
lowerneck -5.53086 -1.57996 3.19952
upperneck 0.148364 -2.33141 1.41354
head 0.945819 -1.13421 -0.15247
lclavicle -5.65783e-15 1.76182e-16 0
lhumerus -53.4875 -6.27298 90.6111
lradius 52.8181 0 0
lwrist 18.8097 0 0
lhand -7.47536 5.39669 0
lfingers 7.12502 0 0
lthumb 18.4133 34.5406 0
rclavicle -5.65783e-15 1.76182e-16 0
rhumerus -29.8931 45.1629 -108.882
rradius 67.3126 0 0
rwrist -2.13371 0 0
rhand -7.98846 -22.946 0
rfingers 7.12502 0 0
rthumb 17.9182 -772.112 0
818
root 2.12919 16.5766 23.3122 4.58375 -3.56689 352.534
lfemur -35.9289 -0.896795 3.44857
ltibia 17.7435 0 0
lfoot -7.96055 14.4192 0
ltoes 18.811 0 0
rfemur 5.38457 6.17619 22.1524
rtibia 19.4529 0 0
rfoot -21.4196 -12.3463 0
rtoes -25.7982 0 0
lowerback 0.0582685 6.80031 5.88329
upperback -0.312688 9.07587 -0.042302
thorax 0.557739 4.54568 -3.17439
lowerneck -5.51626 -1.50885 3.26812
upperneck 0.195414 -2.24172 1.37268
head 0.956055 -1.08955 -0.174347
lclavicle -2.73699e-15 8.10506e-17 0
lhumerus -53.4328 -6.20859 90.55
lradius 52.4041 0 0
lwrist 18.6177 0 0
lhand -7.30596 5.44973 0
lfingers 7.12502 0 0
lthumb 18.5764 34.5806 0
rclavicle -2.73699e-15 8.10506e-17 0
rhumerus -29.72 45.163 -108.66
rradius 67.1406 0 0
rwrist -2.3192 0 0
rhand -7.54773 -22.7739 0
rfingers 7.12502 0 0
rthumb 18.3432 -771.915 0
819
root 2.14029 16.5753 23.3691 4.60519 -4.16826 352.453
lfemur -35.8429 -0.847024 3.68653
ltibia 17.0762 0 0
lfoot -7.75118 14.8145 0
ltoes 18.9792 0 0
rfemur 5.72145 6.403 22.1947
rtibia 19.0555 0 0
rfoot -21.3892 -12.3083 0
rtoes -25.9174 0 0
lowerback 0.030326 6.8421 5.93959
upperback -0.31406 9.13091 -0.00900045
thorax 0.579652 4.57355 -3.16686
lowerneck -5.50703 -1.46393 3.31145
upperneck 0.22514 -2.18506 1.34686
head 0.962522 -1.06134 -0.188168
lclavicle -8.91698e-16 2.09495e-17 0
lhumerus -53.3982 -6.16792 90.5114
lradius 52.1425 0 0
lwrist 18.4965 0 0
lhand -7.19894 5.48325 0
lfingers 7.12502 0 0
lthumb 18.6795 34.6058 0
rclavicle -8.91698e-16 2.09495e-17 0
rhumerus -29.6106 45.1631 -108.52
rradius 67.032 0 0
rwrist -2.43638 0 0
rhand -7.26929 -22.6651 0
rfingers 7.12502 0 0
rthumb 18.6116 -771.791 0
820
root 2.14416 16.5748 23.3889 4.61266 -4.37788 352.424
lfemur -35.8129 -0.829675 3.76948
ltibia 16.8436 0 0
lfoot -7.6782 14.9523 0
ltoes 19.0378 0 0
rfemur 5.83887 6.48206 22.2095
rtibia 18.917 0 0
rfoot -21.3786 -12.2951 0
rtoes -25.9589 0 0
lowerback 0.0205861 6.85666 5.95921
upperback -0.314538 9.1501 0.00260752
thorax 0.58729 4.58326 -3.16423
lowerneck -5.50381 -1.44827 3.32656
upperneck 0.235501 -2.16531 1.33786
head 0.964776 -1.05151 -0.192986
lclavicle -2.48481e-16 0 0
lhumerus -53.3862 -6.15374 90.498
lradius 52.0513 0 0
lwrist 18.4542 0 0
lhand -7.16163 5.49493 0
lfingers 7.12502 0 0
lthumb 18.7154 34.6146 0
rclavicle -2.48481e-16 0 0
rhumerus -29.5725 45.1631 -108.471
rradius 66.9941 0 0
rwrist -2.47723 0 0
rhand -7.17223 -22.6272 0
rfingers 7.12502 0 0
rthumb 18.7052 -771.748 0
821
root 2.15374 16.5727 23.4143 4.55357 -4.35382 352.45
lfemur -35.7673 -0.821534 3.67446
ltibia 16.9604 0 0
lfoot -7.65101 14.8061 0
ltoes 18.9006 0 0
rfemur 5.7431 6.39535 22.0944
rtibia 19.2757 0 0
rfoot -21.0763 -12.113 0
rtoes -25.9427 0 0
lowerback 0.0126879 6.84765 5.92775
upperback -0.317305 9.13796 0.00901496
thorax 0.582913 4.57712 -3.1406
lowerneck -5.50861 -1.46126 3.32499
upperneck 0.291685 -2.18406 1.33656
head 0.984239 -1.05985 -0.194545
lclavicle -4.97875e-17 -6.02299e-17 0
lhumerus -53.3999 -6.14049 90.4665
lradius 52.0607 0 0
lwrist 18.4461 0 0
lhand -7.14665 5.48853 0
lfingers 7.12502 0 0
lthumb 18.7298 34.6067 0
rclavicle -4.97875e-17 -6.02299e-17 0
rhumerus -29.6031 45.0285 -108.271
rradius 66.9186 0 0
rwrist -2.41602 0 0
rhand -7.33445 -22.6447 0
rfingers 7.12502 0 0
rthumb 18.5487 -771.771 0
822
root 2.18124 16.5667 23.4873 4.38404 -4.28478 352.525
lfemur -35.6365 -0.798178 3.40187
ltibia 17.2954 0 0
lfoot -7.57302 14.3868 0
ltoes 18.5071 0 0
rfemur 5.46835 6.14661 21.7643
rtibia 20.3046 0 0
rfoot -20.2089 -11.5904 0
rtoes -25.8964 0 0
lowerback -0.00997097 6.82182 5.83748
upperback -0.325244 9.10312 0.027397
thorax 0.570358 4.55952 -3.07282
lowerneck -5.52237 -1.49852 3.3205
upperneck 0.452869 -2.23785 1.33282
head 1.04008 -1.08378 -0.199016
lclavicle 5.20235e-16 -2.33021e-16 0
lhumerus -53.4393 -6.10249 90.3763
lradius 52.0877 0 0
lwrist 18.4229 0 0
lhand -7.10368 5.47018 0
lfingers 7.12502 0 0
lthumb 18.7711 34.5841 0
rclavicle 5.20235e-16 -2.33021e-16 0
rhumerus -29.6908 44.6423 -107.698
rradius 66.7019 0 0
rwrist -2.24043 0 0
rhand -7.79984 -22.6947 0
rfingers 7.12502 0 0
rthumb 18.0997 -771.836 0
823
root 2.22475 16.5572 23.6027 4.11571 -4.1755 352.644
lfemur -35.4294 -0.76121 2.9704
ltibia 17.8257 0 0
lfoot -7.44957 13.7231 0
ltoes 17.8843 0 0
rfemur 5.03345 5.75288 21.2417
rtibia 21.9332 0 0
rfoot -18.8359 -10.7633 0
rtoes -25.8231 0 0
lowerback -0.0458367 6.78092 5.6946
upperback -0.33781 9.04798 0.056493
thorax 0.550484 4.53165 -2.96553
lowerneck -5.54416 -1.5575 3.31338
upperneck 0.708001 -2.323 1.3269
head 1.12846 -1.12167 -0.206093
lclavicle 1.4225e-15 -5.06524e-16 0
lhumerus -53.5016 -6.04233 90.2334
lradius 52.1304 0 0
lwrist 18.3863 0 0
lhand -7.03565 5.44112 0
lfingers 7.12502 0 0
lthumb 18.8365 34.5483 0
rclavicle 1.4225e-15 -5.06524e-16 0
rhumerus -29.8297 44.031 -106.792
rradius 66.3589 0 0
rwrist -1.96249 0 0
rhand -8.53649 -22.774 0
rfingers 7.12502 0 0
rthumb 17.389 -771.939 0
824
root 2.28241 16.5447 23.7557 3.76019 -4.03072 352.802
lfemur -35.1551 -0.712229 2.39874
ltibia 18.5283 0 0
lfoot -7.286 12.8437 0
ltoes 17.059 0 0
rfemur 4.45726 5.23123 20.5494
rtibia 24.091 0 0
rfoot -17.0169 -9.66746 0
rtoes -25.7259 0 0
lowerback -0.0933555 6.72674 5.5053
upperback -0.354458 8.97493 0.0950427
thorax 0.524153 4.49473 -2.82338
lowerneck -5.57302 -1.63565 3.30396
upperneck 1.04603 -2.4358 1.31905
head 1.24556 -1.17186 -0.21547
lclavicle 2.61792e-15 -8.68891e-16 0
lhumerus -53.5842 -5.96263 90.0442
lradius 52.187 0 0
lwrist 18.3376 0 0
lhand -6.94553 5.40263 0
lfingers 7.12502 0 0
lthumb 18.9231 34.5008 0
rclavicle 2.61792e-15 -8.68891e-16 0
rhumerus -30.0137 43.2212 -105.59
rradius 65.9045 0 0
rwrist -1.59425 0 0
rhand -9.51248 -22.879 0
rfingers 7.12502 0 0
rthumb 16.4473 -772.076 0
825
root 2.35232 16.5294 23.9412 3.32911 -3.85517 352.993
lfemur -34.8224 -0.652839 1.70558
ltibia 19.3802 0 0
lfoot -7.08768 11.7775 0
ltoes 16.0584 0 0
rfemur 3.7586 4.59871 19.7099
rtibia 26.7074 0 0
rfoot -14.8112 -8.33871 0
rtoes -25.608 0 0
lowerback -0.150974 6.66104 5.27577
upperback -0.374645 8.88634 0.141786
thorax 0.492226 4.44996 -2.65102
lowerneck -5.60802 -1.7304 3.29253
upperneck 1.4559 -2.57259 1.30954
head 1.38754 -1.23271 -0.226839
lclavicle 4.0674e-15 -1.30827e-15 0
lhumerus -53.6843 -5.86599 89.8147
lradius 52.2556 0 0
lwrist 18.2787 0 0
lhand -6.83625 5.35595 0
lfingers 7.12502 0 0
lthumb 19.0282 34.4433 0
rclavicle 4.0674e-15 -1.30827e-15 0
rhumerus -30.2368 42.2391 -104.133
rradius 65.3535 0 0
rwrist -1.14774 0 0
rhand -10.6959 -23.0063 0
rfingers 7.12502 0 0
rthumb 15.3056 -772.241 0
826
root 2.4326 16.512 24.1542 2.83409 -3.65358 353.212
lfemur -34.4404 -0.584641 0.909618
ltibia 20.3585 0 0
lfoot -6.85993 10.5531 0
ltoes 14.9094 0 0
rfemur 2.95632 3.87238 18.7459
rtibia 29.7118 0 0
rfoot -12.2785 -6.81289 0
rtoes -25.4727 0 0
lowerback -0.217138 6.5856 5.01219
upperback -0.397826 8.78462 0.195461
thorax 0.455563 4.39856 -2.45309
lowerneck -5.6482 -1.83921 3.27941
upperneck 1.92655 -2.72966 1.29862
head 1.55059 -1.30259 -0.239895
lclavicle 5.73187e-15 -1.81282e-15 0
lhumerus -53.7993 -5.75501 89.5511
lradius 52.3343 0 0
lwrist 18.211 0 0
lhand -6.71076 5.30235 0
lfingers 7.12502 0 0
lthumb 19.1488 34.3773 0
rclavicle 5.73187e-15 -1.81282e-15 0
rhumerus -30.4931 41.1115 -102.461
rradius 64.7208 0 0
rwrist -0.635011 0 0
rhand -12.0548 -23.1525 0
rfingers 7.12502 0 0
rthumb 13.9945 -772.432 0
827
root 2.52136 16.4926 24.3897 2.28677 -3.43069 353.455
lfemur -34.018 -0.509235 0.0295407
ltibia 21.4402 0 0
lfoot -6.60813 9.19928 0
ltoes 13.6389 0 0
rfemur 2.06926 3.06929 17.68
rtibia 33.0337 0 0
rfoot -9.47803 -5.12583 0
rtoes -25.3231 0 0
lowerback -0.290293 6.50219 4.72076
upperback -0.423457 8.67216 0.254809
thorax 0.415026 4.34172 -2.23425
lowerneck -5.69264 -1.95952 3.2649
upperneck 2.44695 -2.90333 1.28655
head 1.73086 -1.37986 -0.25433
lclavicle 7.57223e-15 -2.37069e-15 0
lhumerus -53.9264 -5.63231 89.2598
lradius 52.4214 0 0
lwrist 18.1362 0 0
lhand -6.57201 5.24309 0
lfingers 7.12502 0 0
lthumb 19.2822 34.3042 0
rclavicle 7.57223e-15 -2.37069e-15 0
rhumerus -30.7763 39.8647 -100.611
rradius 64.0213 0 0
rwrist -0.068097 0 0
rhand -13.5574 -23.3142 0
rfingers 7.12502 0 0
rthumb 12.5448 -772.642 0
828
root 2.61672 16.4718 24.6427 1.69876 -3.19123 353.715
lfemur -33.5643 -0.428225 -0.915958
ltibia 22.6023 0 0
lfoot -6.3376 7.74485 0
ltoes 12.274 0 0
rfemur 1.11626 2.2065 16.5349
rtibia 36.6026 0 0
rfoot -6.46943 -3.31336 0
rtoes -25.1624 0 0
lowerback -0.368887 6.41258 4.40767
upperback -0.450993 8.55133 0.318568
thorax 0.371476 4.28065 -1.99914
lowerneck -5.74038 -2.08877 3.24931
upperneck 3.00603 -3.08991 1.27358
head 1.92453 -1.46287 -0.269839
lclavicle 9.54939e-15 -2.97003e-15 0
lhumerus -54.063 -5.50048 88.9467
lradius 52.515 0 0
lwrist 18.0558 0 0
lhand -6.42295 5.17942 0
lfingers 7.12502 0 0
lthumb 19.4255 34.2258 0
rclavicle 9.54939e-15 -2.97003e-15 0
rhumerus -31.0807 38.5252 -98.6239
rradius 63.2697 0 0
rwrist 0.540959 0 0
rhand -15.1716 -23.4878 0
rfingers 7.12502 0 0
rthumb 10.9874 -772.868 0
